#!OML:ASF I:\Actors\actors\Patient Classification 1\Patient 1\Session 1\Subject1.ASF
:FULLY-SPECIFIED
:DEGREES
1137
root 0.46552 17.5449 10.465 6.06223 -4.45312 -9.10724
lowerback -5.28064 1.10021 6.31195
upperback -14.2014 1.7078 1.39453
thorax -12.3156 0.222619 -2.0669
lowerneck -8.67828 -5.46143 -4.52488
upperneck 15.5095 -9.02877 12.5334
head 6.94791 -3.67303 3.98463
rclavicle 6.75868e-015 -2.78299e-015
rhumerus 29.3531 -21.8342 14.0335
rradius 99.0284
rwrist -2.98603
rhand 12.3037 -38.2884
rfingers 7.12502
rthumb 37.3079 295.727
lclavicle 6.75868e-015 -2.78299e-015
lhumerus 42.5663 26.0733 -12.1381
lradius 93.7255
lwrist 45.8418
lhand -21.8016 2.87459
lfingers 7.12502
lthumb 4.60032 32.8046
rfemur 2.78417 22.3496 29.3038
rtibia 4.87324
rfoot -15.171 -19.5484
rtoes -0.142912
lfemur 14.7234 -36.3839 -17.6582
ltibia -3.6916
lfoot -20.1626 47.3983
ltoes 1.30778
1138
root 0.463868 17.5441 10.4767 6.28475 -4.47078 -9.17416
lowerback -5.2854 1.09673 6.35015
upperback -14.2258 1.70405 1.39223
thorax -12.343 0.214915 -2.09009
lowerneck -8.80036 -5.43144 -4.43442
upperneck 15.443 -8.98036 12.4818
head 6.93774 -3.64596 3.95413
rclavicle -9.74045e-015 -6.36111e-015
rhumerus 28.537 -21.1368 14.5236
rradius 99.8408
rwrist -3.21729
rhand 12.1688 -38.5889
rfingers 7.12502
rthumb 37.1804 295.393
lclavicle -9.74045e-015 -6.36111e-015
lhumerus 41.9395 25.4788 -12.4303
lradius 94.9086
lwrist 46.8979
lhand -21.8824 3.35325
lfingers 7.12502
lthumb 4.52231 33.285
rfemur 2.60844 22.4409 29.3161
rtibia 4.81937
rfoot -15.1516 -19.6117
rtoes -0.23857
lfemur 14.4697 -36.4031 -17.4102
ltibia -3.69586
lfoot -20.322 47.4034
ltoes 1.58989
1139
root 0.461856 17.5428 10.4892 6.49031 -4.4357 -9.23817
lowerback -5.28402 1.03684 6.34325
upperback -14.235 1.62747 1.43861
thorax -12.3632 0.180707 -2.03176
lowerneck -9.2009 -5.39626 -4.64368
upperneck 15.7824 -8.99457 12.7975
head 7.14488 -3.61211 4.08536
rclavicle 2.0276e-014 3.18055e-015
rhumerus 27.6052 -20.302 14.9802
rradius 101.058
rwrist -3.30442
rhand 12.0065 -38.8579
rfingers 7.12502
rthumb 37.0268 295.085
lclavicle 2.0276e-014 3.18055e-015
lhumerus 40.9006 24.6768 -12.798
lradius 96.6546
lwrist 48.1971
lhand -22.1792 4.17975
lfingers 7.12502
lthumb 4.2357 34.1174
rfemur 2.44923 22.5133 29.3379
rtibia 4.78823
rfoot -15.1531 -19.705
rtoes -0.269227
lfemur 14.1667 -36.3418 -17.1222
ltibia -3.63493
lfoot -20.475 47.2812
ltoes 1.81305
1140
root 0.460621 17.5421 10.5015 6.65138 -4.33829 -9.26864
lowerback -5.25626 0.936075 6.27988
upperback -14.2113 1.49785 1.5107
thorax -12.3639 0.130021 -1.91211
lowerneck -9.63103 -5.37191 -4.81989
upperneck 16.1747 -9.02045 13.0315
head 7.37138 -3.58474 4.18436
rclavicle 5.1684e-015 -7.95139e-016
rhumerus 26.5541 -19.3718 15.4452
rradius 102.791
rwrist -3.49711
rhand 11.7201 -39.2241
rfingers 7.12502
rthumb 36.756 294.649
lclavicle 5.1684e-015 -7.95139e-016
lhumerus 39.4737 23.5944 -13.22
lradius 98.9137
lwrist 49.4597
lhand -22.9907 4.88107
lfingers 7.12502
lthumb 3.45207 34.8329
rfemur 2.33045 22.4964 29.3337
rtibia 4.76284
rfoot -15.1861 -19.7284
rtoes -0.402262
lfemur 13.9171 -36.326 -16.9238
ltibia -3.57259
lfoot -20.3896 47.1986
ltoes 1.56883
1141
root 0.459391 17.5416 10.5106 6.80982 -4.21364 -9.2904
lowerback -5.15687 0.847191 6.24389
upperback -14.1867 1.38869 1.55401
thorax -12.4044 0.0830869 -1.84086
lowerneck -9.93482 -5.32302 -4.78571
upperneck 16.3218 -8.96991 13.0266
head 7.46768 -3.54106 4.17766
rclavicle -6.95746e-015 1.19271e-014
rhumerus 25.2043 -18.3096 15.7939
rradius 105.123
rwrist -3.80845
rhand 11.4123 -39.8556
rfingers 7.12502
rthumb 36.4646 293.943
lclavicle -6.95746e-015 1.19271e-014
lhumerus 37.7348 22.208 -13.7021
lradius 101.72
lwrist 50.559
lhand -23.9777 5.12425
lfingers 7.12502
lthumb 2.49889 35.0894
rfemur 2.16875 22.4563 29.3108
rtibia 4.78249
rfoot -15.2478 -19.7482
rtoes -0.34869
lfemur 13.6557 -36.3452 -16.7208
ltibia -3.53578
lfoot -20.2169 47.1308
ltoes 1.20497
1142
root 0.457852 17.5413 10.5165 6.9899 -4.09262 -9.36275
lowerback -4.99617 0.783661 6.29607
upperback -14.1429 1.31822 1.57572
thorax -12.4558 0.0436137 -1.8445
lowerneck -10.0831 -5.2441 -4.61604
upperneck 16.0624 -8.81087 12.826
head 7.37779 -3.47428 4.09356
rclavicle 3.3197e-014 -5.12864e-014
rhumerus 23.4985 -17.0659 15.9751
rradius 107.927
rwrist -4.17895
rhand 10.9732 -40.72
rfingers 7.12502
rthumb 36.0488 292.975
lclavicle 3.3197e-014 -5.12864e-014
lhumerus 35.7469 20.4479 -14.1893
lradius 105.074
lwrist 51.7052
lhand -24.7601 5.29904
lfingers 7.12502
lthumb 1.74325 35.2717
rfemur 1.93903 22.452 29.3359
rtibia 4.87519
rfoot -15.2853 -19.8261
rtoes 0.0200196
lfemur 13.3872 -36.3835 -16.4438
ltibia -3.52792
lfoot -20.1243 47.0782
ltoes 1.04117
1143
root 0.456589 17.5408 10.5197 7.21433 -3.91281 -9.44198
lowerback -4.81291 0.713391 6.35463
upperback -14.1038 1.24109 1.59221
thorax -12.5276 -0.000715746 -1.85688
lowerneck -11.127 -4.58306 -4.31475
upperneck 17.6163 -8.12675 12.8713
head 8.00049 -3.02584 4.13758
rclavicle 5.32743e-014 -5.40694e-014
rhumerus 21.496 -15.5485 16.1293
rradius 111.046
rwrist -4.5701
rhand 10.4026 -41.7407
rfingers 7.12502
rthumb 35.5081 291.823
lclavicle 5.32743e-014 -5.40694e-014
lhumerus 33.4623 18.2678 -14.672
lradius 109.07
lwrist 53.1198
lhand -25.723 5.90613
lfingers 7.12502
lthumb 0.813327 35.8843
rfemur 1.65655 22.4337 29.354
rtibia 4.95432
rfoot -15.3242 -19.9165
rtoes 0.268776
lfemur 13.0605 -36.4565 -16.1209
ltibia -3.53674
lfoot -20.0265 47.0252
ltoes 1.03175
1144
root 0.454545 17.54 10.5204 7.49381 -3.63313 -9.44751
lowerback -4.64734 0.6056 6.31128
upperback -14.0674 1.10982 1.6096
thorax -12.5952 -0.0596396 -1.80825
lowerneck -11.3157 -4.58469 -4.03995
upperneck 17.3573 -8.08401 12.5786
head 7.92185 -3.01513 3.98937
rclavicle -6.36111e-015 1.35174e-014
rhumerus 19.2308 -13.7253 16.0787
rradius 114.474
rwrist -4.66872
rhand 9.76827 -42.801
rfingers 7.12502
rthumb 34.9065 290.621
lclavicle -6.36111e-015 1.35174e-014
lhumerus 30.8564 15.5087 -15.1077
lradius 113.523
lwrist 54.1872
lhand -27.2535 6.38882
lfingers 7.12502
lthumb -0.664943 36.3675
rfemur 1.3495 22.4391 29.285
rtibia 4.94109
rfoot -15.3736 -20.1006
rtoes 0.359921
lfemur 12.602 -36.582 -15.7859
ltibia -3.55553
lfoot -19.8654 46.9312
ltoes 1.0869
1145
root 0.450765 17.5393 10.5203 7.79393 -3.36641 -9.37191
lowerback -4.48614 0.476947 6.14469
upperback -13.9955 0.943547 1.62066
thorax -12.6172 -0.120455 -1.69619
lowerneck -11.2632 -4.63305 -3.3331
upperneck 16.6658 -8.07611 11.9756
head 7.63044 -3.04611 3.66028
rclavicle -7.95139e-015 2.0276e-014
rhumerus 16.6582 -11.5914 15.5724
rradius 118.298
rwrist -4.36152
rhand 9.08105 -43.855
rfingers 7.12502
rthumb 34.2542 289.418
lclavicle -7.95139e-015 2.0276e-014
lhumerus 28.0594 11.919 -15.3338
lradius 118.03
lwrist 54.2449
lhand -29.1565 6.35034
lfingers 7.12502
lthumb -2.50282 36.3154
rfemur 1.02885 22.5105 29.1222
rtibia 4.90083
rfoot -15.3929 -20.3556
rtoes 0.572232
lfemur 12.108 -36.7662 -15.531
ltibia -3.56245
lfoot -19.6912 46.9096
ltoes 0.933485
